<svg id="vuesax_bold_info-circle" data-name="vuesax/bold/info-circle" xmlns="http://www.w3.org/2000/svg" width="18" height="18" viewBox="0 0 18 18">
  <g id="info-circle">
    <path id="Vector" d="M7.5,15A7.5,7.5,0,1,1,15,7.5,7.512,7.512,0,0,1,7.5,15Zm-.562-4.5a.563.563,0,0,0,1.125,0V6.75a.563.563,0,0,0-1.125,0ZM8.19,4.215a.774.774,0,0,0-.158-.247.866.866,0,0,0-.248-.158.707.707,0,0,0-.57,0,.866.866,0,0,0-.248.158.774.774,0,0,0-.157.247.707.707,0,0,0,0,.57.866.866,0,0,0,.157.248.866.866,0,0,0,.248.158.75.75,0,0,0,.57,0,.866.866,0,0,0,.248-.158.866.866,0,0,0,.158-.248.707.707,0,0,0,0-.57Z" transform="translate(1.5 1.5)" fill="rgba(255,255,255,0.7)"/>
    <path id="Vector-2" data-name="Vector" d="M0,18H18V0H0Z" transform="translate(18 18) rotate(180)" fill="none" opacity="0"/>
  </g>
</svg>
