<svg id="heart" xmlns="http://www.w3.org/2000/svg" width="18" height="16.586" viewBox="0 0 18 16.586">
  <g id="Vector" transform="translate(0 0)" fill="none" stroke-linecap="round" stroke-linejoin="round">
    <path d="M9.558,16.5a1.9,1.9,0,0,1-1.116,0C5.832,15.579,0,11.731,0,5.209A5.108,5.108,0,0,1,5,0,4.911,4.911,0,0,1,9,2.087,4.924,4.924,0,0,1,13,0a5.108,5.108,0,0,1,5,5.209C18,11.731,12.168,15.579,9.558,16.5Z" stroke="none"/>
    <path d="M 9 14.57653617858887 C 10.16087436676025 14.13902473449707 11.90728950500488 13.06330871582031 13.30245971679688 11.58334445953369 C 15.09241962432861 9.684614181518555 16 7.539854049682617 16 5.208654403686523 C 16 3.439394235610962 14.65240955352783 2.000004291534424 12.99600028991699 2.000004291534424 C 12.06044006347656 2.000004291534424 11.19629955291748 2.456674337387085 10.62514019012451 3.252924203872681 C 10.24948978424072 3.776614189147949 9.644490242004395 4.087194442749023 9 4.087194442749023 C 8.355509757995605 4.087194442749023 7.750510215759277 3.776614189147949 7.374859809875488 3.252924203872681 C 6.803699970245361 2.456674337387085 5.939559936523438 2.000004291534424 5.004000186920166 2.000004291534424 C 3.34758996963501 2.000004291534424 2 3.439394235610962 2 5.208654403686523 C 2 7.539854049682617 2.907579898834229 9.684614181518555 4.697539806365967 11.58334445953369 C 6.092710494995117 13.06330871582031 7.839125156402588 14.13902473449707 9 14.57653617858887 M 9 16.58571243286133 C 8.797499656677246 16.58571243286133 8.595000267028809 16.55775833129883 8.442000389099121 16.50185394287109 C 5.831999778747559 15.57938385009766 0 11.73113441467285 0 5.208654403686523 C 0 2.329454183578491 2.240999937057495 4.220886239636457e-06 5.004000186920166 4.220886239636457e-06 C 6.642000198364258 4.220886239636457e-06 8.090999603271484 0.8199642300605774 9 2.087194204330444 C 9.909000396728516 0.8199642300605774 11.36699962615967 4.220886239636457e-06 12.99600028991699 4.220886239636457e-06 C 15.75899982452393 4.220886239636457e-06 18 2.329454183578491 18 5.208654403686523 C 18 11.73113441467285 12.16800022125244 15.57938385009766 9.557999610900879 16.50185394287109 C 9.404999732971191 16.55775833129883 9.202500343322754 16.58571243286133 9 16.58571243286133 Z" stroke="none" fill="rgba(255,255,255,0.7)"/>
  </g>
</svg>
