<svg xmlns="http://www.w3.org/2000/svg" width="18" height="18" viewBox="0 0 18 18">
  <g id="vuesax_bold_language-square" data-name="vuesax/bold/language-square" transform="translate(-108 -380)">
    <g id="language-square" transform="translate(108 380)">
      <path id="Vector" d="M0,0H18V18H0Z" transform="translate(18 18) rotate(180)" fill="none" opacity="0"/>
      <path id="Exclusion_12" data-name="Exclusion 12" d="M9741.633,13137h-6.273a4.009,4.009,0,0,1-4.359-4.365v-6.277a4.006,4.006,0,0,1,4.359-4.359h6.283a3.993,3.993,0,0,1,4.35,4.359v6.283A4.006,4.006,0,0,1,9741.633,13137Zm-3.023-6.852h1.751v3.04a.648.648,0,1,0,1.3,0v-6.729h.5a.649.649,0,0,0,0-1.3h-2.3a.649.649,0,0,0,0,1.3h.5v2.391h-1.751a2.489,2.489,0,0,0-4.338-2.443.651.651,0,0,0-.064.5.645.645,0,0,0,1.185.153,1.2,1.2,0,1,1,1.039,1.794.649.649,0,0,0,0,1.3,1.2,1.2,0,0,1,1.181.985,1.2,1.2,0,0,1-2.22.809.645.645,0,0,0-.557-.327.633.633,0,0,0-.326.09.646.646,0,0,0-.237.883,2.489,2.489,0,0,0,4.339-2.438Z" transform="translate(-9729.5 -13120.5)" fill="rgba(255,255,255,0.7)"/>
    </g>
  </g>
</svg>
