<svg xmlns="http://www.w3.org/2000/svg" width="180" height="180">
    <defs>
        <linearGradient id="linear-gradient" x1=".5" x2=".5" y2="1" gradientUnits="objectBoundingBox">
            <stop offset="0" stop-color="#b5603a" stop-opacity="0"/>
            <stop offset="1" stop-color="#a8502a"/>
        </linearGradient>
        <style>
            .cls-2{fill:#1d1d1b}.cls-3{fill:#fff}.cls-4{fill:#ededed}
        </style>
    </defs>
    <g id="Group_3071" data-name="Group 3071" transform="translate(5415 -13270)">
        <rect id="Rectangle_1200" data-name="Rectangle 1200" width="180" height="180" rx="6" transform="translate(-5415 13270)" style="fill:#cc6c41"/>
        <g id="Group_2780" data-name="Group 2780" transform="translate(-5373 13302)">
            <g id="Group_2776" data-name="Group 2776" transform="translate(0 63.613)">
                <path id="Path_3148" data-name="Path 3148" class="cls-2" d="m164.694 243.7-.7.9a26 26 0 0 1-2.229 2.474 46.767 46.767 0 0 1-3.81 3.4 49.616 49.616 0 0 1-5.376 3.833 76.635 76.635 0 0 1-6.806 3.828 70.944 70.944 0 0 1-8.059 3.36 59.479 59.479 0 0 1-9.061 2.4 47.606 47.606 0 0 1-4.807.622 22.892 22.892 0 0 1-2.478.149l-2.382-.024c-1.566.034-3.265-.226-4.882-.33-1.616-.2-3.2-.465-4.773-.735a71.412 71.412 0 0 1-9.022-2.44 53.714 53.714 0 0 1-4.174-1.565c-1.359-.523-2.647-1.131-3.9-1.72a77.475 77.475 0 0 1-6.873-3.7c-1.035-.624-2-1.278-2.911-1.89l-2.522-1.861-2.129-1.745-1.729-1.594a26.3 26.3 0 0 1-2.242-2.455l-.733-.936 1.221-.89.695.844a24.7 24.7 0 0 0 2.16 2.26l1.694 1.493 2.1 1.65 2.489 1.752c.91.57 1.847 1.2 2.859 1.8a75.541 75.541 0 0 0 6.731 3.552c1.228.565 2.488 1.149 3.817 1.648a51.028 51.028 0 0 0 4.075 1.492 69.319 69.319 0 0 0 8.776 2.3c1.521.248 3.065.494 4.609.673 1.557.082 3.068.327 4.673.282l2.382.006c.741.031 1.546-.094 2.314-.132a45.7 45.7 0 0 0 4.615-.557 57.5 57.5 0 0 0 8.772-2.243 69.047 69.047 0 0 0 7.861-3.2 74.734 74.734 0 0 0 6.663-3.672 60.021 60.021 0 0 0 5.288-3.643 44.865 44.865 0 0 0 3.758-3.188 24.121 24.121 0 0 0 2.149-2.264l.718-.887z" transform="translate(-70.895 -238.518)"/>
                <path id="Path_3149" data-name="Path 3149" class="cls-2" d="M173.522 324.8s.287.055.773.181c.241.066.537.14.864.249a6.553 6.553 0 0 0 1.1.274c.4.079.817.162 1.243.278.438.095.935.111 1.413.209l.737.122c.254.01.511.016.767.042a15.5 15.5 0 0 0 1.555.094 27.988 27.988 0 0 0 3.087-.085 13.51 13.51 0 0 0 1.438-.121c.455-.07.9-.111 1.308-.146.818-.088 1.493-.241 1.995-.282s.795-.073.795-.073-.223.18-.637.468c-.208.141-.461.318-.763.5a5.857 5.857 0 0 1-1.04.566 12.613 12.613 0 0 1-2.816.953 12.378 12.378 0 0 1-1.668.29l-1.755.069c-.589 0-1.174-.125-1.751-.183a6.854 6.854 0 0 1-1.659-.378 10.486 10.486 0 0 1-2.772-1.216 7.819 7.819 0 0 1-1.645-1.257 12.45 12.45 0 0 1-.569-.554z" transform="translate(-133.847 -290.002)"/>
                <path id="Path_3150" data-name="Path 3150" class="cls-2" d="M304.961 232.161a12.782 12.782 0 0 1 4.247 4.354 5.746 5.746 0 0 1 .693 3.261c-.035.984-.324 1.333.364 2.094a.561.561 0 0 0 .56.148c2.184-.828 1.147-4.551.448-6.161-1.019-2.349-3.731-3.636-6-4.448-.451-.163-.69.511-.312.752z" transform="translate(-216.141 -231.384)"/>
                <path id="Path_3151" data-name="Path 3151" class="cls-2" d="M74.057 231.409c-2.393.858-4.781 2.113-6 4.448-.811 1.559-1.655 5.364.448 6.161a.561.561 0 0 0 .56-.148 1.358 1.358 0 0 0 .483-1.27 6.229 6.229 0 0 1 .355-3.664 11.218 11.218 0 0 1 4.467-4.775c.382-.241.143-.915-.313-.752z" transform="translate(-67.187 -231.384)"/>
            </g>
            <g id="Group_2779" data-name="Group 2779" transform="translate(2.383)">
                <path id="Path_3152" data-name="Path 3152" class="cls-2" d="M102.439 62.8a28.226 28.226 0 0 0-18.09 8.511.654.654 0 0 1-1.062-.728c1.807-3.919 5.254-8.244 8.42-9.579a12.975 12.975 0 0 1 10.932.792.534.534 0 0 1-.2 1.004z" transform="translate(-79.633 -60.137)"/>
                <g id="Group_2777" data-name="Group 2777" transform="translate(0 14.179)">
                    <path id="Path_3153" data-name="Path 3153" class="cls-3" d="M112.781 111.485a20.527 20.527 0 0 0-17.306-8.347 20.909 20.909 0 0 0-16.4 10.261 24.459 24.459 0 0 0-.428 23.5c3.882 7.106 11.638 11.53 19.272 10.994s14.791-6.009 17.784-13.6a24.363 24.363 0 0 0-2.922-22.808z" transform="translate(-75.007 -101.28)"/>
                    <path id="Path_3154" data-name="Path 3154" class="cls-2" d="m110.773 108.9-1.027-1.124a9.434 9.434 0 0 0-1.269-1.246 15.8 15.8 0 0 0-1.82-1.443 21.135 21.135 0 0 0-5.646-2.8 20.592 20.592 0 0 0-7.969-.767l-1.2.126c-.371.072-.713.173-1.078.256l-1.1.259-1.117.413-1.14.428-1.1.574a13.742 13.742 0 0 0-2.17 1.321 20.39 20.39 0 0 0-6.931 8.312 24.023 24.023 0 0 0-2.064 11.505 20.681 20.681 0 0 0 13.964 18.749 17.737 17.737 0 0 0 11.809.086 21 21 0 0 0 9.11-6.3l.862-1.009c.254-.358.478-.733.716-1.094a13.8 13.8 0 0 0 1.28-2.2c.327-.755.751-1.511.984-2.224l.71-2.325a25.244 25.244 0 0 0 .469-8.359c-.113-1.25-.443-2.389-.628-3.455l-.949-2.821-1.035-2.157a14.339 14.339 0 0 0-.9-1.511l-.8-1.232zm1.2-.95.824 1.344a15.068 15.068 0 0 1 .979 1.613l1.078 2.313c.315.9.621 1.913.975 3.007.19 1.131.52 2.341.627 3.663a26.432 26.432 0 0 1-.615 8.9l-.735 2.316c-.3.88-.722 1.588-1.09 2.411a14.921 14.921 0 0 1-1.379 2.313c-.256.379-.5.772-.77 1.146l-.92 1.056a22.113 22.113 0 0 1-9.712 6.552 18.712 18.712 0 0 1-12.425-.231 22.972 22.972 0 0 1-10.3-7.631 24.224 24.224 0 0 1-4.736-11.887 26.283 26.283 0 0 1 1.513-12.607 22.589 22.589 0 0 1 7.208-9.6 16.384 16.384 0 0 1 2.423-1.6l1.242-.7 1.3-.545c.432-.175.851-.361 1.286-.522l1.375-.38c.452-.118.917-.252 1.348-.346l1.192-.168 1.167-.164c.259-.023.095-.006.163-.011l.28.006.318.007.631.017a12.84 12.84 0 0 1 2.428.2 14.512 14.512 0 0 1 2.26.448c.708.241 1.4.456 2.048.7a21.55 21.55 0 0 1 6 3.811 19.425 19.425 0 0 1 1.884 1.848 10.528 10.528 0 0 1 1.2 1.445l.909 1.224z" transform="translate(-73.583 -98.2)"/>
                </g>
                <path id="Path_3155" data-name="Path 3155" class="cls-4" d="M116.484 176.147a22.751 22.751 0 0 0 1.363-5.708 28.377 28.377 0 0 1-1.055 3.047c-2.979 7.736-10.1 13.314-17.7 13.861s-15.319-3.962-19.184-11.205a23.091 23.091 0 0 1-2.038-5.514 22.532 22.532 0 0 0 2.323 8.331c3.754 7.036 11.477 11.531 18.86 11s14.537-6.297 17.431-13.812z" transform="translate(-76.272 -129.349)"/>
                <path id="Path_3156" data-name="Path 3156" class="cls-2" d="M136.1 161.9a8.3 8.3 0 1 1-8.3-8.3 8.3 8.3 0 0 1 8.3 8.3z" transform="translate(-102.363 -118.781)"/>
                <path id="Path_3157" data-name="Path 3157" class="cls-3" d="M133.223 163.13a2.74 2.74 0 1 1-2.74-2.74 2.741 2.741 0 0 1 2.74 2.74z" transform="translate(-107.537 -123.044)"/>
                <path id="Path_3158" data-name="Path 3158" class="cls-2" d="M256.132 62.8a28.226 28.226 0 0 1 18.089 8.511.654.654 0 0 0 1.062-.728c-1.807-3.919-5.254-8.244-8.42-9.579a12.975 12.975 0 0 0-10.932.792.534.534 0 0 0 .201 1.004z" transform="translate(-187.697 -60.137)"/>
                <g id="Group_2778" data-name="Group 2778" transform="translate(48.342 14.713)">
                    <path id="Path_3159" data-name="Path 3159" class="cls-3" d="M209.157 111.485a20.525 20.525 0 0 1 17.306-8.347 20.908 20.908 0 0 1 16.4 10.261 24.458 24.458 0 0 1 .428 23.5c-3.882 7.106-11.638 11.53-19.272 10.994s-14.791-6.009-17.784-13.6a24.361 24.361 0 0 1 2.922-22.808z" transform="translate(-204.032 -101.814)"/>
                    <path id="Path_3160" data-name="Path 3160" class="cls-2" d="m207.525 108.851.968-1.24a10.644 10.644 0 0 1 1.228-1.413 17.677 17.677 0 0 1 1.916-1.785 22.357 22.357 0 0 1 6.04-3.562 19.058 19.058 0 0 1 9.1-1.064l1.191.171c.421.093.865.226 1.3.342l1.324.37c.422.158.831.341 1.252.513l1.263.535 1.21.687a15.85 15.85 0 0 1 2.361 1.565 22.346 22.346 0 0 1 7.219 9.32 25.4 25.4 0 0 1 1.642 12.434 24.006 24.006 0 0 1-4.69 11.814 21.858 21.858 0 0 1-10.278 7.39 19.584 19.584 0 0 1-12.187.14 21.755 21.755 0 0 1-9.606-6.332l-.921-1.033c-.273-.366-.516-.751-.773-1.123a14.648 14.648 0 0 1-1.39-2.272c-.371-.805-.8-1.516-1.1-2.364l-.761-2.308a26.349 26.349 0 0 1-.709-8.839c.092-1.32.407-2.529.584-3.662.341-1.1.636-2.111.941-3.015l1.053-2.326a14.218 14.218 0 0 1 .975-1.618zm1.213.931-.8 1.2a13.52 13.52 0 0 0-.9 1.515l-1.01 2.169-.914 2.829c-.173 1.068-.488 2.206-.586 3.453a25.109 25.109 0 0 0 .562 8.294l.737 2.316c.232.681.666 1.44 1 2.177a13.576 13.576 0 0 0 1.29 2.159c.239.353.464.721.718 1.071l.863.985a20.642 20.642 0 0 0 9 6.083 18.605 18.605 0 0 0 11.571 0 20.211 20.211 0 0 0 9.861-6.97 20.961 20.961 0 0 0 4.035-11.466 23.069 23.069 0 0 0-2.193-11.332 20.073 20.073 0 0 0-6.941-8.029 13.265 13.265 0 0 0-2.108-1.291l-1.068-.562-1.107-.418-1.084-.405-1.046-.249c-.349-.081-.671-.18-1.031-.252l-1.2-.129c-.394-.042-.789-.08-1.175-.121.235.022.05 0 .094.006-.094-.006-.228 0-.228 0h-.775a9.814 9.814 0 0 0-2 .085 32.694 32.694 0 0 0-3.691.661 22.094 22.094 0 0 0-5.682 2.548 14.5 14.5 0 0 0-1.851 1.381 9.285 9.285 0 0 0-1.3 1.215z" transform="translate(-203.015 -99.633)"/>
                </g>
                <path id="Path_3161" data-name="Path 3161" class="cls-2" d="M244.293 161.9a8.3 8.3 0 1 1-8.3-8.3 8.3 8.3 0 0 1 8.3 8.3z" transform="translate(-170.184 -118.781)"/>
                <path id="Path_3162" data-name="Path 3162" class="cls-3" d="M241.418 163.13a2.74 2.74 0 1 1-2.74-2.74 2.741 2.741 0 0 1 2.74 2.74z" transform="translate(-175.368 -123.044)"/>
                <path id="Path_3163" data-name="Path 3163" class="cls-4" d="M208.873 176.655a22.244 22.244 0 0 1-1.377-5.609 21.742 21.742 0 0 0 .838 2.681c2.953 7.532 10.016 12.962 17.551 13.5s15.188-3.857 19.02-10.91a22.24 22.24 0 0 0 2.021-5.368 24.215 24.215 0 0 1-2.415 8.587 19.857 19.857 0 0 1-18.587 10.234c-7.324-.523-14.182-5.799-17.051-13.115z" transform="translate(-157.484 -129.666)"/>
            </g>
        </g>
        <rect id="Rectangle_1206" data-name="Rectangle 1206" width="180" height="180" rx="6" transform="translate(-5415 13270)" style="fill:url(#linear-gradient)"/>
    </g>
</svg>
