<svg xmlns="http://www.w3.org/2000/svg" width="32" height="32" viewBox="0 0 32 32">
  <g id="Pintrest_SVG_icon" data-name="Pintrest SVG icon" transform="translate(7148 -230)">
    <g id="linkedin-svgrepo-com" transform="translate(-7148 230)">
      <path id="Path_3640" data-name="Path 3640" d="M16,0A16,16,0,1,1,0,16,16,16,0,0,1,16,0Z" fill="#d7143a"/>
    </g>
    <path id="pinterest-svgrepo-com" d="M65.738,1.64A6.136,6.136,0,0,0,61.446,0,6.746,6.746,0,0,0,56.47,1.918a5.669,5.669,0,0,0-1.677,3.929A3.687,3.687,0,0,0,56.786,9.5a.66.66,0,0,0,.251.052.558.558,0,0,0,.544-.448c.042-.158.14-.549.182-.719a.675.675,0,0,0-.181-.73,2.325,2.325,0,0,1-.529-1.589A4,4,0,0,1,61.2,2.044c2.137,0,3.465,1.215,3.465,3.17a6.586,6.586,0,0,1-.748,3.218,2.213,2.213,0,0,1-1.831,1.281,1.214,1.214,0,0,1-.965-.441,1.11,1.11,0,0,1-.194-.964c.1-.4.225-.824.351-1.231a7.615,7.615,0,0,0,.446-2,1.455,1.455,0,0,0-1.464-1.6c-1.113,0-1.985,1.13-1.985,2.574a3.827,3.827,0,0,0,.273,1.44c-.14.594-.974,4.126-1.132,4.792-.091.389-.642,3.46.269,3.7,1.024.275,1.939-2.716,2.032-3.054.076-.275.34-1.314.5-1.953a3.1,3.1,0,0,0,2.065.8,4.6,4.6,0,0,0,3.7-1.85,7.425,7.425,0,0,0,1.39-4.54A5.236,5.236,0,0,0,65.738,1.64Z" transform="translate(-7193.081 238)" fill="#fff"/>
  </g>
</svg>
