<svg xmlns="http://www.w3.org/2000/svg" width="50" height="50" viewBox="0 0 50 50">
  <g id="Volume_Unmute" data-name="Volume Unmute" transform="translate(5878 4726)">
    <path id="Icon_awesome-volume-up" data-name="Icon awesome-volume-up" d="M11.946,4.183,7,9.125H1.333A1.333,1.333,0,0,0,0,10.458v8a1.333,1.333,0,0,0,1.333,1.333H7l4.943,4.942a1.334,1.334,0,0,0,2.276-.943V5.126A1.334,1.334,0,0,0,11.946,4.183ZM24.908,1.345a1.344,1.344,0,0,0-1.476,2.248,12.98,12.98,0,0,1,0,21.731,1.344,1.344,0,1,0,1.476,2.247,15.669,15.669,0,0,0,0-26.226Zm1.758,13.113A10.258,10.258,0,0,0,21.9,5.778a1.328,1.328,0,0,0-1.84.414,1.349,1.349,0,0,0,.412,1.853,7.593,7.593,0,0,1,0,12.824,1.349,1.349,0,0,0-.412,1.853,1.33,1.33,0,0,0,1.84.414A10.257,10.257,0,0,0,26.667,14.458Zm-7.876-4.271A1.334,1.334,0,0,0,17.5,12.524a2.19,2.19,0,0,1,0,3.868,1.334,1.334,0,0,0,1.287,2.337,4.857,4.857,0,0,0,0-8.541Z" transform="translate(-5869 -4715.125)" fill="#fff"/>
    <g id="Ellipse_741" data-name="Ellipse 741" transform="translate(-5878 -4726)" fill="none" stroke="#fff" stroke-width="1">
      <circle cx="25" cy="25" r="25" stroke="none"/>
      <circle cx="25" cy="25" r="24.5" fill="none"/>
    </g>
  </g>
</svg>
